<mxfile host="app.diagrams.net" agent="Mozilla/5.0 (Windows NT 10.0; Win64; x64) AppleWebKit/537.36 (KHTML, like Gecko) Chrome/138.0.0.0 Safari/537.36" version="28.0.7">
  <diagram name="Page-1" id="gKN2bDaXzwXcmCH2D9VV">
    <mxGraphModel dx="3330" dy="1554" grid="1" gridSize="10" guides="1" tooltips="1" connect="1" arrows="1" fold="1" page="1" pageScale="1" pageWidth="1100" pageHeight="850" math="0" shadow="0">
      <root>
        <mxCell id="0" />
        <mxCell id="1" parent="0" />
        <mxCell id="E2qFTEhWjjn39WHarsaT-6" value="" style="strokeWidth=1;shadow=0;dashed=0;align=center;html=1;shape=mxgraph.mockup.containers.browserWindow;rSize=0;strokeColor=#666666;strokeColor2=#008cff;strokeColor3=#c4c4c4;mainText=,;recursiveResize=0;sketch=1;curveFitting=1;jiggle=2;" parent="1" vertex="1">
          <mxGeometry x="90" y="40" width="1150" height="850" as="geometry" />
        </mxCell>
        <mxCell id="E2qFTEhWjjn39WHarsaT-7" value="Home" style="strokeWidth=1;shadow=0;dashed=0;align=center;html=1;shape=mxgraph.mockup.containers.anchor;fontSize=17;fontColor=#666666;align=left;whiteSpace=wrap;" parent="E2qFTEhWjjn39WHarsaT-6" vertex="1">
          <mxGeometry x="60" y="12" width="110" height="26" as="geometry" />
        </mxCell>
        <mxCell id="E2qFTEhWjjn39WHarsaT-8" value="https//Snyder&#39;s_Contracting_LLC.com" style="strokeWidth=1;shadow=0;dashed=0;align=center;html=1;shape=mxgraph.mockup.containers.anchor;rSize=0;fontSize=17;fontColor=#666666;align=left;" parent="E2qFTEhWjjn39WHarsaT-6" vertex="1">
          <mxGeometry x="130" y="70" width="250" height="26" as="geometry" />
        </mxCell>
        <mxCell id="gzUO-I7bephKt9PA4om2-3" value="" style="shape=image;html=1;verticalAlign=top;verticalLabelPosition=bottom;labelBackgroundColor=#ffffff;imageAspect=0;aspect=fixed;image=https://icons.diagrams.net/icon-cache1/Evil_Icons_User_Interface-2617/picture-609.svg" parent="E2qFTEhWjjn39WHarsaT-6" vertex="1">
          <mxGeometry x="65" y="75" width="250" height="250" as="geometry" />
        </mxCell>
        <mxCell id="gzUO-I7bephKt9PA4om2-8" value="&lt;b&gt;&lt;font style=&quot;font-size: 24px;&quot;&gt;Snyder&#39;s Contracting LLC&lt;/font&gt;&lt;/b&gt;" style="strokeWidth=1;shadow=0;dashed=0;align=center;html=1;shape=mxgraph.mockup.text.textBox;fontColor=#666666;align=left;fontSize=17;spacingLeft=4;spacingTop=-3;whiteSpace=wrap;strokeColor=#666666;mainText=" parent="E2qFTEhWjjn39WHarsaT-6" vertex="1">
          <mxGeometry x="400" y="270" width="320" height="80" as="geometry" />
        </mxCell>
        <mxCell id="gzUO-I7bephKt9PA4om2-6" value="" style="shape=image;html=1;verticalAlign=top;verticalLabelPosition=bottom;labelBackgroundColor=#ffffff;imageAspect=0;aspect=fixed;image=https://icons.diagrams.net/icon-cache1/Evil_Icons_User_Interface-2617/picture-609.svg" parent="E2qFTEhWjjn39WHarsaT-6" vertex="1">
          <mxGeometry x="440" y="80" width="240" height="240" as="geometry" />
        </mxCell>
        <mxCell id="gzUO-I7bephKt9PA4om2-7" value="" style="edgeStyle=orthogonalEdgeStyle;rounded=0;orthogonalLoop=1;jettySize=auto;html=1;" parent="E2qFTEhWjjn39WHarsaT-6" source="gzUO-I7bephKt9PA4om2-3" target="gzUO-I7bephKt9PA4om2-6" edge="1">
          <mxGeometry relative="1" as="geometry" />
        </mxCell>
        <mxCell id="gzUO-I7bephKt9PA4om2-9" value="" style="strokeWidth=1;shadow=0;dashed=0;align=center;html=1;shape=mxgraph.mockup.forms.rrect;rSize=5;strokeColor=#999999;fillColor=#ffffff;" parent="E2qFTEhWjjn39WHarsaT-6" vertex="1">
          <mxGeometry x="879" y="450" width="160" height="250" as="geometry" />
        </mxCell>
        <mxCell id="gzUO-I7bephKt9PA4om2-10" value="October 2014" style="strokeWidth=1;shadow=0;dashed=0;align=center;html=1;shape=mxgraph.mockup.forms.anchor;fontColor=#999999;" parent="gzUO-I7bephKt9PA4om2-9" vertex="1">
          <mxGeometry x="30" y="11.428571428571429" width="100" height="28.571428571428573" as="geometry" />
        </mxCell>
        <mxCell id="gzUO-I7bephKt9PA4om2-11" value="&lt;" style="strokeWidth=1;shadow=0;dashed=0;align=center;html=1;shape=mxgraph.mockup.forms.rrect;rSize=4;strokeColor=#999999;fontColor=#008cff;fontSize=19;fontStyle=1;" parent="gzUO-I7bephKt9PA4om2-9" vertex="1">
          <mxGeometry x="8" y="11.428571428571429" width="25" height="28.571428571428573" as="geometry" />
        </mxCell>
        <mxCell id="gzUO-I7bephKt9PA4om2-12" value="&gt;" style="strokeWidth=1;shadow=0;dashed=0;align=center;html=1;shape=mxgraph.mockup.forms.rrect;rSize=4;strokeColor=#999999;fontColor=#008cff;fontSize=19;fontStyle=1;" parent="gzUO-I7bephKt9PA4om2-9" vertex="1">
          <mxGeometry x="127" y="11.428571428571429" width="25" height="28.571428571428573" as="geometry" />
        </mxCell>
        <mxCell id="gzUO-I7bephKt9PA4om2-13" value="Mo" style="strokeWidth=1;shadow=0;dashed=0;align=center;html=1;shape=mxgraph.mockup.forms.anchor;fontColor=#999999;" parent="gzUO-I7bephKt9PA4om2-9" vertex="1">
          <mxGeometry x="10" y="40" width="20" height="28.571428571428573" as="geometry" />
        </mxCell>
        <mxCell id="gzUO-I7bephKt9PA4om2-14" value="Tu" style="strokeWidth=1;shadow=0;dashed=0;align=center;html=1;shape=mxgraph.mockup.forms.anchor;fontColor=#999999;" parent="gzUO-I7bephKt9PA4om2-9" vertex="1">
          <mxGeometry x="30" y="40" width="20" height="28.571428571428573" as="geometry" />
        </mxCell>
        <mxCell id="gzUO-I7bephKt9PA4om2-15" value="We" style="strokeWidth=1;shadow=0;dashed=0;align=center;html=1;shape=mxgraph.mockup.forms.anchor;fontColor=#999999;" parent="gzUO-I7bephKt9PA4om2-9" vertex="1">
          <mxGeometry x="50" y="40" width="20" height="28.571428571428573" as="geometry" />
        </mxCell>
        <mxCell id="gzUO-I7bephKt9PA4om2-16" value="Th" style="strokeWidth=1;shadow=0;dashed=0;align=center;html=1;shape=mxgraph.mockup.forms.anchor;fontColor=#999999;" parent="gzUO-I7bephKt9PA4om2-9" vertex="1">
          <mxGeometry x="70" y="40" width="20" height="28.571428571428573" as="geometry" />
        </mxCell>
        <mxCell id="gzUO-I7bephKt9PA4om2-17" value="Fr" style="strokeWidth=1;shadow=0;dashed=0;align=center;html=1;shape=mxgraph.mockup.forms.anchor;fontColor=#999999;" parent="gzUO-I7bephKt9PA4om2-9" vertex="1">
          <mxGeometry x="90" y="40" width="20" height="28.571428571428573" as="geometry" />
        </mxCell>
        <mxCell id="gzUO-I7bephKt9PA4om2-18" value="Sa" style="strokeWidth=1;shadow=0;dashed=0;align=center;html=1;shape=mxgraph.mockup.forms.anchor;fontColor=#999999;" parent="gzUO-I7bephKt9PA4om2-9" vertex="1">
          <mxGeometry x="110" y="40" width="20" height="28.571428571428573" as="geometry" />
        </mxCell>
        <mxCell id="gzUO-I7bephKt9PA4om2-19" value="Su" style="strokeWidth=1;shadow=0;dashed=0;align=center;html=1;shape=mxgraph.mockup.forms.anchor;fontColor=#999999;" parent="gzUO-I7bephKt9PA4om2-9" vertex="1">
          <mxGeometry x="130" y="40" width="20" height="28.571428571428573" as="geometry" />
        </mxCell>
        <mxCell id="gzUO-I7bephKt9PA4om2-20" value="1" style="strokeWidth=1;shadow=0;dashed=0;align=center;html=1;shape=mxgraph.mockup.forms.rrect;rSize=0;strokeColor=#999999;fontColor=#999999;" parent="gzUO-I7bephKt9PA4om2-9" vertex="1">
          <mxGeometry x="10" y="68.57142857142857" width="20" height="28.571428571428573" as="geometry" />
        </mxCell>
        <mxCell id="gzUO-I7bephKt9PA4om2-21" value="2" style="strokeWidth=1;shadow=0;dashed=0;align=center;html=1;shape=mxgraph.mockup.forms.rrect;rSize=0;strokeColor=#999999;fontColor=#999999;" parent="gzUO-I7bephKt9PA4om2-9" vertex="1">
          <mxGeometry x="30" y="68.57142857142857" width="20" height="28.571428571428573" as="geometry" />
        </mxCell>
        <mxCell id="gzUO-I7bephKt9PA4om2-22" value="3" style="strokeWidth=1;shadow=0;dashed=0;align=center;html=1;shape=mxgraph.mockup.forms.rrect;rSize=0;strokeColor=#999999;fontColor=#999999;" parent="gzUO-I7bephKt9PA4om2-9" vertex="1">
          <mxGeometry x="50" y="68.57142857142857" width="20" height="28.571428571428573" as="geometry" />
        </mxCell>
        <mxCell id="gzUO-I7bephKt9PA4om2-23" value="4" style="strokeWidth=1;shadow=0;dashed=0;align=center;html=1;shape=mxgraph.mockup.forms.rrect;rSize=0;strokeColor=#999999;fontColor=#999999;" parent="gzUO-I7bephKt9PA4om2-9" vertex="1">
          <mxGeometry x="70" y="68.57142857142857" width="20" height="28.571428571428573" as="geometry" />
        </mxCell>
        <mxCell id="gzUO-I7bephKt9PA4om2-24" value="5" style="strokeWidth=1;shadow=0;dashed=0;align=center;html=1;shape=mxgraph.mockup.forms.rrect;rSize=0;strokeColor=#999999;fontColor=#999999;" parent="gzUO-I7bephKt9PA4om2-9" vertex="1">
          <mxGeometry x="90" y="68.57142857142857" width="20" height="28.571428571428573" as="geometry" />
        </mxCell>
        <mxCell id="gzUO-I7bephKt9PA4om2-25" value="6" style="strokeWidth=1;shadow=0;dashed=0;align=center;html=1;shape=mxgraph.mockup.forms.rrect;rSize=0;strokeColor=#999999;fontColor=#999999;" parent="gzUO-I7bephKt9PA4om2-9" vertex="1">
          <mxGeometry x="110" y="68.57142857142857" width="20" height="28.571428571428573" as="geometry" />
        </mxCell>
        <mxCell id="gzUO-I7bephKt9PA4om2-26" value="7" style="strokeWidth=1;shadow=0;dashed=0;align=center;html=1;shape=mxgraph.mockup.forms.rrect;rSize=0;strokeColor=#999999;fontColor=#999999;" parent="gzUO-I7bephKt9PA4om2-9" vertex="1">
          <mxGeometry x="130" y="68.57142857142857" width="20" height="28.571428571428573" as="geometry" />
        </mxCell>
        <mxCell id="gzUO-I7bephKt9PA4om2-27" value="8" style="strokeWidth=1;shadow=0;dashed=0;align=center;html=1;shape=mxgraph.mockup.forms.rrect;rSize=0;strokeColor=#999999;fontColor=#999999;" parent="gzUO-I7bephKt9PA4om2-9" vertex="1">
          <mxGeometry x="10" y="97.14285714285714" width="20" height="28.571428571428573" as="geometry" />
        </mxCell>
        <mxCell id="gzUO-I7bephKt9PA4om2-28" value="9" style="strokeWidth=1;shadow=0;dashed=0;align=center;html=1;shape=mxgraph.mockup.forms.rrect;rSize=0;strokeColor=#999999;fontColor=#999999;" parent="gzUO-I7bephKt9PA4om2-9" vertex="1">
          <mxGeometry x="30" y="97.14285714285714" width="20" height="28.571428571428573" as="geometry" />
        </mxCell>
        <mxCell id="gzUO-I7bephKt9PA4om2-29" value="10" style="strokeWidth=1;shadow=0;dashed=0;align=center;html=1;shape=mxgraph.mockup.forms.rrect;rSize=0;strokeColor=#999999;fontColor=#999999;" parent="gzUO-I7bephKt9PA4om2-9" vertex="1">
          <mxGeometry x="50" y="97.14285714285714" width="20" height="28.571428571428573" as="geometry" />
        </mxCell>
        <mxCell id="gzUO-I7bephKt9PA4om2-30" value="11" style="strokeWidth=1;shadow=0;dashed=0;align=center;html=1;shape=mxgraph.mockup.forms.rrect;rSize=0;strokeColor=#999999;fontColor=#999999;" parent="gzUO-I7bephKt9PA4om2-9" vertex="1">
          <mxGeometry x="70" y="97.14285714285714" width="20" height="28.571428571428573" as="geometry" />
        </mxCell>
        <mxCell id="gzUO-I7bephKt9PA4om2-31" value="12" style="strokeWidth=1;shadow=0;dashed=0;align=center;html=1;shape=mxgraph.mockup.forms.rrect;rSize=0;strokeColor=#999999;fontColor=#999999;" parent="gzUO-I7bephKt9PA4om2-9" vertex="1">
          <mxGeometry x="90" y="97.14285714285714" width="20" height="28.571428571428573" as="geometry" />
        </mxCell>
        <mxCell id="gzUO-I7bephKt9PA4om2-32" value="13" style="strokeWidth=1;shadow=0;dashed=0;align=center;html=1;shape=mxgraph.mockup.forms.rrect;rSize=0;strokeColor=#999999;fontColor=#999999;" parent="gzUO-I7bephKt9PA4om2-9" vertex="1">
          <mxGeometry x="110" y="97.14285714285714" width="20" height="28.571428571428573" as="geometry" />
        </mxCell>
        <mxCell id="gzUO-I7bephKt9PA4om2-33" value="14" style="strokeWidth=1;shadow=0;dashed=0;align=center;html=1;shape=mxgraph.mockup.forms.rrect;rSize=0;strokeColor=#999999;fontColor=#999999;" parent="gzUO-I7bephKt9PA4om2-9" vertex="1">
          <mxGeometry x="130" y="97.14285714285714" width="20" height="28.571428571428573" as="geometry" />
        </mxCell>
        <mxCell id="gzUO-I7bephKt9PA4om2-34" value="15" style="strokeWidth=1;shadow=0;dashed=0;align=center;html=1;shape=mxgraph.mockup.forms.rrect;rSize=0;strokeColor=#999999;fontColor=#999999;" parent="gzUO-I7bephKt9PA4om2-9" vertex="1">
          <mxGeometry x="10" y="125.71428571428572" width="20" height="28.571428571428573" as="geometry" />
        </mxCell>
        <mxCell id="gzUO-I7bephKt9PA4om2-35" value="16" style="strokeWidth=1;shadow=0;dashed=0;align=center;html=1;shape=mxgraph.mockup.forms.rrect;rSize=0;strokeColor=#999999;fontColor=#999999;" parent="gzUO-I7bephKt9PA4om2-9" vertex="1">
          <mxGeometry x="30" y="125.71428571428572" width="20" height="28.571428571428573" as="geometry" />
        </mxCell>
        <mxCell id="gzUO-I7bephKt9PA4om2-36" value="17" style="strokeWidth=1;shadow=0;dashed=0;align=center;html=1;shape=mxgraph.mockup.forms.rrect;rSize=0;strokeColor=#999999;fontColor=#999999;" parent="gzUO-I7bephKt9PA4om2-9" vertex="1">
          <mxGeometry x="50" y="125.71428571428572" width="20" height="28.571428571428573" as="geometry" />
        </mxCell>
        <mxCell id="gzUO-I7bephKt9PA4om2-37" value="18" style="strokeWidth=1;shadow=0;dashed=0;align=center;html=1;shape=mxgraph.mockup.forms.rrect;rSize=0;strokeColor=#999999;fontColor=#999999;" parent="gzUO-I7bephKt9PA4om2-9" vertex="1">
          <mxGeometry x="70" y="125.71428571428572" width="20" height="28.571428571428573" as="geometry" />
        </mxCell>
        <mxCell id="gzUO-I7bephKt9PA4om2-38" value="19" style="strokeWidth=1;shadow=0;dashed=0;align=center;html=1;shape=mxgraph.mockup.forms.rrect;rSize=0;strokeColor=#999999;fontColor=#999999;" parent="gzUO-I7bephKt9PA4om2-9" vertex="1">
          <mxGeometry x="90" y="125.71428571428572" width="20" height="28.571428571428573" as="geometry" />
        </mxCell>
        <mxCell id="gzUO-I7bephKt9PA4om2-39" value="20" style="strokeWidth=1;shadow=0;dashed=0;align=center;html=1;shape=mxgraph.mockup.forms.rrect;rSize=0;strokeColor=#999999;fontColor=#999999;" parent="gzUO-I7bephKt9PA4om2-9" vertex="1">
          <mxGeometry x="110" y="125.71428571428572" width="20" height="28.571428571428573" as="geometry" />
        </mxCell>
        <mxCell id="gzUO-I7bephKt9PA4om2-40" value="21" style="strokeWidth=1;shadow=0;dashed=0;align=center;html=1;shape=mxgraph.mockup.forms.rrect;rSize=0;strokeColor=#999999;fontColor=#999999;" parent="gzUO-I7bephKt9PA4om2-9" vertex="1">
          <mxGeometry x="130" y="125.71428571428572" width="20" height="28.571428571428573" as="geometry" />
        </mxCell>
        <mxCell id="gzUO-I7bephKt9PA4om2-41" value="22" style="strokeWidth=1;shadow=0;dashed=0;align=center;html=1;shape=mxgraph.mockup.forms.rrect;rSize=0;strokeColor=#999999;fontColor=#999999;" parent="gzUO-I7bephKt9PA4om2-9" vertex="1">
          <mxGeometry x="10" y="154.28571428571428" width="20" height="28.571428571428573" as="geometry" />
        </mxCell>
        <mxCell id="gzUO-I7bephKt9PA4om2-42" value="23" style="strokeWidth=1;shadow=0;dashed=0;align=center;html=1;shape=mxgraph.mockup.forms.rrect;rSize=0;strokeColor=#999999;fontColor=#999999;" parent="gzUO-I7bephKt9PA4om2-9" vertex="1">
          <mxGeometry x="30" y="154.28571428571428" width="20" height="28.571428571428573" as="geometry" />
        </mxCell>
        <mxCell id="gzUO-I7bephKt9PA4om2-43" value="25" style="strokeWidth=1;shadow=0;dashed=0;align=center;html=1;shape=mxgraph.mockup.forms.rrect;rSize=0;strokeColor=#999999;fontColor=#999999;" parent="gzUO-I7bephKt9PA4om2-9" vertex="1">
          <mxGeometry x="70" y="154.28571428571428" width="20" height="28.571428571428573" as="geometry" />
        </mxCell>
        <mxCell id="gzUO-I7bephKt9PA4om2-44" value="26" style="strokeWidth=1;shadow=0;dashed=0;align=center;html=1;shape=mxgraph.mockup.forms.rrect;rSize=0;strokeColor=#999999;fontColor=#999999;" parent="gzUO-I7bephKt9PA4om2-9" vertex="1">
          <mxGeometry x="90" y="154.28571428571428" width="20" height="28.571428571428573" as="geometry" />
        </mxCell>
        <mxCell id="gzUO-I7bephKt9PA4om2-45" value="27" style="strokeWidth=1;shadow=0;dashed=0;align=center;html=1;shape=mxgraph.mockup.forms.rrect;rSize=0;strokeColor=#999999;fontColor=#999999;" parent="gzUO-I7bephKt9PA4om2-9" vertex="1">
          <mxGeometry x="110" y="154.28571428571428" width="20" height="28.571428571428573" as="geometry" />
        </mxCell>
        <mxCell id="gzUO-I7bephKt9PA4om2-46" value="28" style="strokeWidth=1;shadow=0;dashed=0;align=center;html=1;shape=mxgraph.mockup.forms.rrect;rSize=0;strokeColor=#999999;fontColor=#999999;" parent="gzUO-I7bephKt9PA4om2-9" vertex="1">
          <mxGeometry x="130" y="154.28571428571428" width="20" height="28.571428571428573" as="geometry" />
        </mxCell>
        <mxCell id="gzUO-I7bephKt9PA4om2-47" value="29" style="strokeWidth=1;shadow=0;dashed=0;align=center;html=1;shape=mxgraph.mockup.forms.rrect;rSize=0;strokeColor=#999999;fontColor=#999999;" parent="gzUO-I7bephKt9PA4om2-9" vertex="1">
          <mxGeometry x="10" y="182.85714285714286" width="20" height="28.571428571428573" as="geometry" />
        </mxCell>
        <mxCell id="gzUO-I7bephKt9PA4om2-48" value="30" style="strokeWidth=1;shadow=0;dashed=0;align=center;html=1;shape=mxgraph.mockup.forms.rrect;rSize=0;strokeColor=#999999;fontColor=#999999;" parent="gzUO-I7bephKt9PA4om2-9" vertex="1">
          <mxGeometry x="30" y="182.85714285714286" width="20" height="28.571428571428573" as="geometry" />
        </mxCell>
        <mxCell id="gzUO-I7bephKt9PA4om2-49" value="31" style="strokeWidth=1;shadow=0;dashed=0;align=center;html=1;shape=mxgraph.mockup.forms.rrect;rSize=0;strokeColor=#999999;fontColor=#999999;" parent="gzUO-I7bephKt9PA4om2-9" vertex="1">
          <mxGeometry x="50" y="182.85714285714286" width="20" height="28.571428571428573" as="geometry" />
        </mxCell>
        <mxCell id="gzUO-I7bephKt9PA4om2-50" value="1" style="strokeWidth=1;shadow=0;dashed=0;align=center;html=1;shape=mxgraph.mockup.forms.rrect;rSize=0;strokeColor=#999999;fontColor=#999999;fillColor=#ddeeff;" parent="gzUO-I7bephKt9PA4om2-9" vertex="1">
          <mxGeometry x="70" y="182.85714285714286" width="20" height="28.571428571428573" as="geometry" />
        </mxCell>
        <mxCell id="gzUO-I7bephKt9PA4om2-51" value="2" style="strokeWidth=1;shadow=0;dashed=0;align=center;html=1;shape=mxgraph.mockup.forms.rrect;rSize=0;strokeColor=#999999;fontColor=#999999;fillColor=#ddeeff;" parent="gzUO-I7bephKt9PA4om2-9" vertex="1">
          <mxGeometry x="90" y="182.85714285714286" width="20" height="28.571428571428573" as="geometry" />
        </mxCell>
        <mxCell id="gzUO-I7bephKt9PA4om2-52" value="3" style="strokeWidth=1;shadow=0;dashed=0;align=center;html=1;shape=mxgraph.mockup.forms.rrect;rSize=0;strokeColor=#999999;fontColor=#999999;fillColor=#ddeeff;" parent="gzUO-I7bephKt9PA4om2-9" vertex="1">
          <mxGeometry x="110" y="182.85714285714286" width="20" height="28.571428571428573" as="geometry" />
        </mxCell>
        <mxCell id="gzUO-I7bephKt9PA4om2-53" value="4" style="strokeWidth=1;shadow=0;dashed=0;align=center;html=1;shape=mxgraph.mockup.forms.rrect;rSize=0;strokeColor=#999999;fontColor=#999999;fillColor=#ddeeff;" parent="gzUO-I7bephKt9PA4om2-9" vertex="1">
          <mxGeometry x="130" y="182.85714285714286" width="20" height="28.571428571428573" as="geometry" />
        </mxCell>
        <mxCell id="gzUO-I7bephKt9PA4om2-54" value="5" style="strokeWidth=1;shadow=0;dashed=0;align=center;html=1;shape=mxgraph.mockup.forms.rrect;rSize=0;strokeColor=#999999;fontColor=#999999;fillColor=#ddeeff;" parent="gzUO-I7bephKt9PA4om2-9" vertex="1">
          <mxGeometry x="10" y="211.42857142857144" width="20" height="28.571428571428573" as="geometry" />
        </mxCell>
        <mxCell id="gzUO-I7bephKt9PA4om2-55" value="6" style="strokeWidth=1;shadow=0;dashed=0;align=center;html=1;shape=mxgraph.mockup.forms.rrect;rSize=0;strokeColor=#999999;fontColor=#999999;fillColor=#ddeeff;" parent="gzUO-I7bephKt9PA4om2-9" vertex="1">
          <mxGeometry x="30" y="211.42857142857144" width="20" height="28.571428571428573" as="geometry" />
        </mxCell>
        <mxCell id="gzUO-I7bephKt9PA4om2-56" value="7" style="strokeWidth=1;shadow=0;dashed=0;align=center;html=1;shape=mxgraph.mockup.forms.rrect;rSize=0;strokeColor=#999999;fontColor=#999999;fillColor=#ddeeff;" parent="gzUO-I7bephKt9PA4om2-9" vertex="1">
          <mxGeometry x="50" y="211.42857142857144" width="20" height="28.571428571428573" as="geometry" />
        </mxCell>
        <mxCell id="gzUO-I7bephKt9PA4om2-57" value="8" style="strokeWidth=1;shadow=0;dashed=0;align=center;html=1;shape=mxgraph.mockup.forms.rrect;rSize=0;strokeColor=#999999;fontColor=#999999;fillColor=#ddeeff;" parent="gzUO-I7bephKt9PA4om2-9" vertex="1">
          <mxGeometry x="70" y="211.42857142857144" width="20" height="28.571428571428573" as="geometry" />
        </mxCell>
        <mxCell id="gzUO-I7bephKt9PA4om2-58" value="9" style="strokeWidth=1;shadow=0;dashed=0;align=center;html=1;shape=mxgraph.mockup.forms.rrect;rSize=0;strokeColor=#999999;fontColor=#999999;fillColor=#ddeeff;" parent="gzUO-I7bephKt9PA4om2-9" vertex="1">
          <mxGeometry x="90" y="211.42857142857144" width="20" height="28.571428571428573" as="geometry" />
        </mxCell>
        <mxCell id="gzUO-I7bephKt9PA4om2-59" value="10" style="strokeWidth=1;shadow=0;dashed=0;align=center;html=1;shape=mxgraph.mockup.forms.rrect;rSize=0;strokeColor=#999999;fontColor=#999999;fillColor=#ddeeff;" parent="gzUO-I7bephKt9PA4om2-9" vertex="1">
          <mxGeometry x="110" y="211.42857142857144" width="20" height="28.571428571428573" as="geometry" />
        </mxCell>
        <mxCell id="gzUO-I7bephKt9PA4om2-60" value="11" style="strokeWidth=1;shadow=0;dashed=0;align=center;html=1;shape=mxgraph.mockup.forms.rrect;rSize=0;strokeColor=#999999;fontColor=#999999;fillColor=#ddeeff;" parent="gzUO-I7bephKt9PA4om2-9" vertex="1">
          <mxGeometry x="130" y="211.42857142857144" width="20" height="28.571428571428573" as="geometry" />
        </mxCell>
        <mxCell id="gzUO-I7bephKt9PA4om2-61" value="24" style="strokeWidth=1;shadow=0;dashed=0;align=center;html=1;shape=mxgraph.mockup.forms.rrect;rSize=0;strokeColor=#ff0000;fontColor=#ffffff;strokeWidth=2;fillColor=#008cff;" parent="gzUO-I7bephKt9PA4om2-9" vertex="1">
          <mxGeometry x="50" y="154.28571428571428" width="20" height="28.571428571428573" as="geometry" />
        </mxCell>
        <mxCell id="gzUO-I7bephKt9PA4om2-62" value="Schedule a time with us!" style="strokeWidth=1;shadow=0;dashed=0;align=center;html=1;shape=mxgraph.mockup.text.textBox;fontColor=#666666;align=left;fontSize=17;spacingLeft=4;spacingTop=-3;whiteSpace=wrap;strokeColor=#666666;mainText=" parent="E2qFTEhWjjn39WHarsaT-6" vertex="1">
          <mxGeometry x="858" y="400" width="202" height="30" as="geometry" />
        </mxCell>
        <mxCell id="gzUO-I7bephKt9PA4om2-63" value="&lt;font style=&quot;font-size: 19px;&quot;&gt;Request a Quote&lt;/font&gt;" style="labelPosition=center;verticalLabelPosition=middle;align=center;html=1;shape=mxgraph.basic.button;dx=10;whiteSpace=wrap;" parent="E2qFTEhWjjn39WHarsaT-6" vertex="1">
          <mxGeometry x="130" y="430" width="370" height="60" as="geometry" />
        </mxCell>
        <mxCell id="gzUO-I7bephKt9PA4om2-64" value="&lt;font style=&quot;font-size: 19px;&quot;&gt;Browse Through Our Past Projects&lt;/font&gt;" style="labelPosition=center;verticalLabelPosition=middle;align=center;html=1;shape=mxgraph.basic.button;dx=10;whiteSpace=wrap;" parent="E2qFTEhWjjn39WHarsaT-6" vertex="1">
          <mxGeometry x="130" y="519" width="370" height="60" as="geometry" />
        </mxCell>
        <mxCell id="gzUO-I7bephKt9PA4om2-65" value="&lt;font style=&quot;font-size: 19px;&quot;&gt;Contact Us With Questions&lt;/font&gt;" style="labelPosition=center;verticalLabelPosition=middle;align=center;html=1;shape=mxgraph.basic.button;dx=10;whiteSpace=wrap;" parent="E2qFTEhWjjn39WHarsaT-6" vertex="1">
          <mxGeometry x="130" y="610" width="370" height="60" as="geometry" />
        </mxCell>
        <mxCell id="gzUO-I7bephKt9PA4om2-66" value="&lt;font style=&quot;font-size: 19px;&quot;&gt;About Us&lt;/font&gt;" style="labelPosition=center;verticalLabelPosition=middle;align=center;html=1;shape=mxgraph.basic.button;dx=10;whiteSpace=wrap;" parent="E2qFTEhWjjn39WHarsaT-6" vertex="1">
          <mxGeometry x="130" y="700" width="370" height="60" as="geometry" />
        </mxCell>
        <mxCell id="9ll-I7S0bbcJUbi0K9ph-2" value="" style="shape=image;html=1;verticalAlign=top;verticalLabelPosition=bottom;labelBackgroundColor=#ffffff;imageAspect=0;aspect=fixed;image=https://icons.diagrams.net/icon-cache1/Evil_Icons_User_Interface-2617/picture-609.svg" vertex="1" parent="E2qFTEhWjjn39WHarsaT-6">
          <mxGeometry x="790" y="80" width="240" height="240" as="geometry" />
        </mxCell>
        <mxCell id="9ll-I7S0bbcJUbi0K9ph-3" value="" style="edgeStyle=orthogonalEdgeStyle;rounded=0;orthogonalLoop=1;jettySize=auto;html=1;" edge="1" parent="E2qFTEhWjjn39WHarsaT-6" source="gzUO-I7bephKt9PA4om2-6" target="9ll-I7S0bbcJUbi0K9ph-2">
          <mxGeometry relative="1" as="geometry" />
        </mxCell>
        <mxCell id="9ll-I7S0bbcJUbi0K9ph-5" value="beginning of Project pic&lt;div&gt;&lt;br&gt;&lt;/div&gt;" style="strokeWidth=1;shadow=0;dashed=0;align=center;html=1;shape=mxgraph.mockup.text.textBox;fontColor=#666666;align=left;fontSize=17;spacingLeft=4;spacingTop=-3;whiteSpace=wrap;strokeColor=#666666;mainText=" vertex="1" parent="E2qFTEhWjjn39WHarsaT-6">
          <mxGeometry x="90" y="185" width="200" height="30" as="geometry" />
        </mxCell>
        <mxCell id="9ll-I7S0bbcJUbi0K9ph-7" value="Construction" style="strokeWidth=1;shadow=0;dashed=0;align=center;html=1;shape=mxgraph.mockup.text.textBox;fontColor=#666666;align=left;fontSize=17;spacingLeft=4;spacingTop=-3;whiteSpace=wrap;strokeColor=#666666;mainText=" vertex="1" parent="E2qFTEhWjjn39WHarsaT-6">
          <mxGeometry x="500" y="180" width="110" height="30" as="geometry" />
        </mxCell>
        <mxCell id="9ll-I7S0bbcJUbi0K9ph-8" value="Finished Project&lt;div&gt;&lt;br&gt;&lt;/div&gt;" style="strokeWidth=1;shadow=0;dashed=0;align=center;html=1;shape=mxgraph.mockup.text.textBox;fontColor=#666666;align=left;fontSize=17;spacingLeft=4;spacingTop=-3;whiteSpace=wrap;strokeColor=#666666;mainText=" vertex="1" parent="E2qFTEhWjjn39WHarsaT-6">
          <mxGeometry x="839" y="180" width="150" height="30" as="geometry" />
        </mxCell>
        <mxCell id="E2qFTEhWjjn39WHarsaT-9" value="&lt;h1 style=&quot;margin-top: 0px;&quot;&gt;Contractor Website&lt;/h1&gt;" style="text;html=1;whiteSpace=wrap;overflow=hidden;rounded=0;" parent="1" vertex="1">
          <mxGeometry x="605" width="240" height="40" as="geometry" />
        </mxCell>
      </root>
    </mxGraphModel>
  </diagram>
</mxfile>
